<svg xmlns="http://www.w3.org/2000/svg" viewBox="0 0 512 512">
  <defs>
    <path id="textPathTop" d="M 60,256 A 196,196 0 0 1 452,256" />
    <path id="textPathBottom" d="M 60,256 A 196,196 0 0 0 452,256" />
  </defs>

  <!-- Outer Ring (Gold) -->
  <circle cx="256" cy="256" r="240" fill="none" stroke="#E0B04E" stroke-width="8" />
  <circle cx="256" cy="256" r="220" fill="none" stroke="#E0B04E" stroke-width="3" />

  <!-- Mountain Range (Detailed) -->
  <!-- Main Peak -->
  <path d="M 256,120 
           L 280,160 L 290,150 L 320,200 L 340,180 L 380,260 
           L 400,280 
           L 112,280 
           L 130,260 L 160,200 L 180,220 L 210,160 L 230,190 Z" 
        fill="#E0B04E" stroke="none" />
        
  <!-- Snow / Highlights (lighter cream) -->
  <path d="M 256,120 L 265,150 L 256,160 L 245,150 Z" fill="#F8F8F8" />
  <path d="M 320,200 L 330,220 L 320,230 L 310,220 Z" fill="#F8F8F8" />
  <path d="M 160,200 L 170,220 L 160,230 L 150,220 Z" fill="#F8F8F8" />

  <!-- Trees (Forest Skyline at bottom of mountains) -->
  <path d="M 140,280 L 150,240 L 160,280 Z" fill="#36472E" /> 
  <path d="M 160,280 L 170,230 L 180,280 Z" fill="#36472E" />
  <path d="M 180,280 L 195,220 L 210,280 Z" fill="#36472E" />
  <path d="M 210,280 L 225,230 L 240,280 Z" fill="#36472E" />
  <path d="M 240,280 L 256,210 L 272,280 Z" fill="#36472E" /> <!-- Center Tree -->
  <path d="M 272,280 L 285,230 L 300,280 Z" fill="#36472E" />
  <path d="M 300,280 L 315,220 L 330,280 Z" fill="#36472E" />
  <path d="M 330,280 L 340,230 L 350,280 Z" fill="#36472E" />
  <path d="M 350,280 L 360,240 L 370,280 Z" fill="#36472E" />

  <!-- Bottom Fill to cover mountain base if needed, or let trees stand -->
  <!-- <rect x="112" y="280" width="288" height="20" fill="#36472E" /> -->

  <!-- Text -->
  <text fill="#E0B04E" font-family="'Quicksand', sans-serif" font-weight="bold" font-size="52" letter-spacing="4">
    <textPath href="#textPathTop" startOffset="50%" text-anchor="middle" dominant-baseline="auto">
      JUNGLE PEAKS
    </textPath>
  </text>
  
  <text fill="#E0B04E" font-family="'Quicksand', sans-serif" font-weight="bold" font-size="42" letter-spacing="4">
    <textPath href="#textPathBottom" startOffset="50%" text-anchor="middle" dominant-baseline="hanging">
      BREWING CO.
    </textPath>
  </text>
</svg>
